<?xml version="1.0" encoding="utf-8"?>
<!-- Generator: Adobe Illustrator 16.0.0, SVG Export Plug-In . SVG Version: 6.00 Build 0)  -->
<!DOCTYPE svg PUBLIC "-//W3C//DTD SVG 1.1//EN" "http://www.w3.org/Graphics/SVG/1.1/DTD/svg11.dtd">
<svg version="1.1" id="Layer_1" xmlns="http://www.w3.org/2000/svg" xmlns:xlink="http://www.w3.org/1999/xlink" x="0px" y="0px"
	 width="100px" height="62.945px" viewBox="0.001 18.527 100 62.945" enable-background="new 0.001 18.527 100 62.945"
	 xml:space="preserve">
   <style type="text/css">
    path {
      fill: rgb(214,64,69);
    }
   </style>
<path d="M94.553,37.899v-3.204c0-1.697-1.063-3.212-2.66-3.788L58.23,18.766c-0.44-0.159-0.904-0.239-1.367-0.239
	c-0.462,0-0.924,0.08-1.364,0.239L23.216,30.407c-0.876-0.062-1.767-0.092-2.661-0.092c-3.82,0-7.444,0.559-10.201,1.573
	c-5.777,2.126-6.64,5.774-6.64,7.759v4.837c-3.148,2.13-3.713,4.789-3.713,6.393c0,1.447,0.503,4.228,3.816,6.438
	c0.126,0.776,0.389,1.5,0.764,2.179v3.574c0,5.76,6.454,9.337,16.84,9.337c0.661,0,1.32-0.018,1.973-0.051
	c1.317,6.71,10.977,9.117,19.709,9.117c8.565,0,18.022-2.315,19.623-8.736l30.034-10.834c1.597-0.575,2.66-2.091,2.66-3.787v-5.871
	c2.945-1.658,4.58-4.031,4.58-6.954C100,42.099,98.038,39.565,94.553,37.899z M7.833,38.949c0.019-0.073,0.052-0.142,0.077-0.213
	l0,0c0.051-0.149,0.107-0.296,0.183-0.437l0,0c0.042-0.08,0.094-0.155,0.144-0.231l0,0c0.042-0.063,0.091-0.124,0.136-0.187
	c0.045-0.062,0.086-0.126,0.137-0.186c0.062-0.075,0.129-0.148,0.199-0.221c0.056-0.059,0.123-0.114,0.184-0.17
	c0.062-0.056,0.119-0.115,0.185-0.17l0,0c0.078-0.065,0.153-0.132,0.237-0.194c0.154-0.116,0.322-0.227,0.497-0.335
	c0.078-0.049,0.151-0.101,0.233-0.148c0.132-0.077,0.281-0.145,0.419-0.216c0.14-0.073,0.272-0.148,0.42-0.216l0,0
	c0.01-0.004,0.021-0.008,0.031-0.013c0.003-0.001,0.006-0.002,0.01-0.004c0.288-0.129,0.592-0.251,0.908-0.365l0,0
	c0.107-0.038,0.222-0.073,0.332-0.11c0.001,0,0.003,0,0.004-0.001c0.229-0.078,0.461-0.152,0.703-0.221h0.001
	c0.136-0.039,0.275-0.075,0.414-0.111c0.001,0,0.001,0,0.002,0c0.23-0.061,0.465-0.119,0.705-0.172c0,0,0,0,0.001,0
	c0.148-0.034,0.297-0.065,0.448-0.097h0.001c0.083-0.017,0.168-0.031,0.252-0.047c0.167-0.032,0.334-0.064,0.504-0.094
	c0.149-0.025,0.296-0.052,0.448-0.076h0.001c0.082-0.012,0.165-0.022,0.247-0.033c0.205-0.03,0.408-0.059,0.617-0.083
	c0.127-0.016,0.252-0.035,0.379-0.049c0.422-0.046,0.849-0.086,1.28-0.116c0.03-0.002,0.06-0.002,0.09-0.006c0,0,0.001,0,0.002,0
	c0.4-0.026,0.804-0.046,1.208-0.058c0.144-0.004,0.287-0.005,0.431-0.007c0.279-0.005,0.559-0.008,0.837-0.007
	c0.342,0.002,0.683,0.012,1.024,0.024c0.164,0.005,0.329,0.008,0.492,0.016c0.502,0.025,1.001,0.059,1.494,0.105l33.106-11.938
	l33.663,12.141l-3.447,1.244l-9.278,3.346l-3.771,1.36l-0.434,0.156l-1.73,0.624l-3.771,1.36l-0.434,0.156l-4.645,1.675
	l-0.009,0.003l-5.107,1.842c0.097,0.322,0.163,0.655,0.163,1.006c0,0.259-0.031,0.51-0.086,0.755
	c-0.018,0.08-0.05,0.156-0.073,0.234c-0.049,0.161-0.1,0.321-0.171,0.475c-0.039,0.089-0.093,0.173-0.142,0.26
	c-0.075,0.137-0.155,0.274-0.249,0.405c-0.063,0.086-0.133,0.171-0.203,0.254c-0.102,0.125-0.21,0.247-0.328,0.365
	c-0.081,0.081-0.165,0.161-0.255,0.239c-0.129,0.115-0.266,0.229-0.407,0.336c-0.099,0.074-0.194,0.147-0.297,0.219
	c-0.158,0.108-0.325,0.212-0.494,0.314c-0.107,0.063-0.212,0.131-0.324,0.192c-0.19,0.104-0.396,0.204-0.6,0.303
	c-0.107,0.053-0.21,0.106-0.321,0.156c-0.258,0.115-0.53,0.226-0.808,0.33c-0.07,0.027-0.136,0.059-0.208,0.084
	c-0.35,0.128-0.714,0.248-1.089,0.361c-0.134,0.04-0.275,0.075-0.412,0.112c-0.249,0.07-0.497,0.141-0.754,0.203
	c-0.182,0.045-0.369,0.084-0.553,0.126c-0.222,0.049-0.443,0.1-0.669,0.146c-0.208,0.041-0.421,0.078-0.634,0.115
	c-0.21,0.038-0.421,0.073-0.636,0.106c-0.232,0.036-0.466,0.069-0.702,0.103c-0.198,0.026-0.396,0.051-0.595,0.075
	c-0.255,0.03-0.513,0.061-0.772,0.084c-0.178,0.018-0.356,0.032-0.537,0.049c-0.284,0.022-0.567,0.046-0.855,0.064
	c-0.141,0.009-0.283,0.015-0.424,0.021c-0.327,0.019-0.653,0.033-0.982,0.043c-0.045,0.002-0.089,0.002-0.135,0.002
	c-3.924,0.102-7.939-0.338-11.073-1.318c-0.004-0.001-0.007-0.002-0.011-0.003c-0.325-0.103-0.64-0.211-0.945-0.325
	c-0.064-0.022-0.126-0.049-0.19-0.074c-0.242-0.093-0.478-0.189-0.704-0.291c-0.083-0.037-0.166-0.074-0.247-0.112
	c-0.2-0.094-0.392-0.19-0.578-0.29c-0.086-0.047-0.173-0.093-0.256-0.14c-0.173-0.1-0.337-0.202-0.498-0.305
	c-0.08-0.054-0.161-0.104-0.236-0.155c-0.16-0.112-0.308-0.229-0.452-0.347c-0.061-0.049-0.126-0.096-0.183-0.146
	c-0.194-0.169-0.375-0.344-0.536-0.526c-0.069-0.08-0.15-0.154-0.212-0.236c-0.37-0.476-0.616-0.994-0.731-1.55
	c-0.038-0.187-0.062-0.376-0.07-0.57c-0.002-0.05-0.017-0.097-0.017-0.148c0-0.298,0.045-0.583,0.117-0.86c0-0.001,0-0.002,0-0.002
	c0.059-0.23,0.135-0.456,0.24-0.671c0.064-0.134,0.141-0.264,0.223-0.392c0.396-0.625,0.981-1.186,1.723-1.684
	c-0.556,0.176-1.15,0.329-1.768,0.463c-0.051,0.011-0.103,0.022-0.154,0.034c-0.62,0.129-1.261,0.241-1.925,0.329
	c-0.004,0.001-0.008,0.001-0.012,0.002c-0.662,0.087-1.341,0.151-2.029,0.197c-0.058,0.004-0.117,0.007-0.174,0.011
	c-0.69,0.042-1.389,0.065-2.087,0.065c-0.016,0-0.032-0.001-0.048-0.001c-0.341,0-0.683-0.007-1.023-0.018
	c-0.105-0.003-0.211-0.007-0.317-0.013c-0.273-0.011-0.543-0.025-0.814-0.042c-0.092-0.006-0.185-0.011-0.277-0.018
	c-0.348-0.025-0.694-0.055-1.038-0.092c-0.069-0.007-0.139-0.017-0.208-0.024c-0.278-0.031-0.553-0.065-0.825-0.104
	c-0.104-0.015-0.206-0.029-0.309-0.045c-0.089-0.014-0.177-0.03-0.266-0.044c-0.183-0.03-0.365-0.059-0.544-0.092
	c-0.062-0.011-0.125-0.021-0.188-0.033c-0.318-0.062-0.63-0.129-0.937-0.202c-0.083-0.02-0.163-0.041-0.245-0.062
	c-0.232-0.059-0.461-0.12-0.683-0.184c-0.082-0.029-0.167-0.053-0.251-0.078c-0.287-0.088-0.568-0.18-0.836-0.278
	c-0.008-0.003-0.015-0.006-0.022-0.009c-0.261-0.097-0.507-0.2-0.749-0.306c-0.071-0.032-0.142-0.065-0.211-0.099
	c-0.187-0.087-0.364-0.177-0.537-0.271c-0.057-0.032-0.117-0.062-0.172-0.094c-0.214-0.124-0.419-0.252-0.608-0.387
	c-0.036-0.025-0.067-0.054-0.103-0.08c-0.075-0.056-0.14-0.114-0.209-0.172c-0.073-0.06-0.149-0.117-0.217-0.178
	c-0.047-0.043-0.095-0.087-0.14-0.131c-0.126-0.125-0.242-0.252-0.347-0.384c-0.023-0.029-0.051-0.058-0.073-0.087
	c-0.12-0.16-0.221-0.326-0.307-0.498c-0.022-0.044-0.04-0.089-0.059-0.135c-0.061-0.136-0.109-0.274-0.148-0.417
	c-0.014-0.053-0.029-0.105-0.041-0.159c-0.04-0.188-0.065-0.378-0.065-0.577C7.74,39.407,7.776,39.176,7.833,38.949z M95.889,45.99
	c-0.02,0.076-0.054,0.147-0.078,0.22c-0.048,0.145-0.094,0.291-0.163,0.43c-0.042,0.083-0.102,0.163-0.151,0.245
	c-0.073,0.122-0.146,0.243-0.236,0.358c-0.007,0.009-0.016,0.017-0.023,0.026c-0.06,0.074-0.128,0.145-0.194,0.216
	c-0.097,0.106-0.193,0.213-0.306,0.315c-0.086,0.08-0.186,0.154-0.279,0.23c-0.1,0.08-0.199,0.159-0.307,0.234
	c-0.021,0.015-0.039,0.031-0.062,0.046c-0.107,0.074-0.223,0.145-0.338,0.215c-0.048,0.029-0.096,0.056-0.145,0.084
	c-0.093,0.055-0.181,0.112-0.279,0.165c-0.125,0.067-0.257,0.133-0.39,0.197c-0.154,0.076-0.312,0.15-0.476,0.222
	c-0.142,0.061-0.287,0.12-0.435,0.177c-0.171,0.066-0.344,0.131-0.522,0.194c-0.155,0.055-0.314,0.107-0.476,0.157
	c-0.185,0.059-0.372,0.114-0.563,0.168c-0.169,0.047-0.338,0.092-0.511,0.136c-0.195,0.051-0.398,0.097-0.602,0.143
	c-0.161,0.037-0.324,0.073-0.489,0.106c-0.016,0.003-0.028,0.006-0.044,0.009c-0.175,0.035-0.352,0.065-0.527,0.097
	c-0.036,0.007-0.073,0.014-0.109,0.021c-0.185,0.033-0.367,0.064-0.555,0.094c-0.221,0.035-0.446,0.064-0.672,0.092
	c-0.187,0.024-0.372,0.05-0.562,0.071c-0.233,0.026-0.47,0.048-0.707,0.069c-0.188,0.017-0.371,0.035-0.562,0.049
	c-0.057,0.004-0.113,0.006-0.171,0.01l-0.012,0.004c-0.187,0.013-0.376,0.021-0.566,0.03c-0.179,0.009-0.358,0.021-0.54,0.027
	c-0.27,0.01-0.539,0.014-0.811,0.018c-0.163,0.002-0.328,0.008-0.493,0.008c-0.014,0-0.029,0.001-0.045,0.001
	c-0.415,0-0.83-0.007-1.244-0.021c-0.234,0.657-0.709,1.244-1.361,1.762c-1.127,0.893-2.793,1.573-4.752,2.043
	c-0.187,0.896-0.446,1.7-0.776,2.356c-0.522,1.037-1.222,1.695-2.104,1.695c-0.456,0-0.86-0.181-1.221-0.494
	c-0.493-0.43-0.895-1.121-1.207-1.973c-0.039-0.106-0.081-0.211-0.117-0.323c-0.105,0.173-0.233,0.338-0.371,0.499
	c-1.121,1.313-3.293,2.259-5.935,2.834c-0.702,1.343-2.421,2.361-4.662,3.059c-0.261,0.081-0.522,0.159-0.796,0.232
	c-0.046,0.743-0.37,1.405-0.903,1.996c-0.001,0.001-0.003,0.002-0.003,0.003c-1.713,1.888-5.638,2.991-9.942,3.306
	c-0.461,1.061-1.017,1.933-1.666,2.54l0,0c-0.649,0.607-1.392,0.949-2.229,0.949c-0.784,0-1.479-0.312-2.097-0.845
	c-0.755-0.653-1.392-1.646-1.902-2.888c-0.009-0.022-0.02-0.043-0.029-0.065c-2.649-0.423-4.972-1.179-6.459-2.271
	c-1.2-0.142-2.351-0.35-3.413-0.618l0,0c-1.062-0.272-2.031-0.607-2.868-1.007c-1.308-0.623-2.289-1.402-2.775-2.34
	c-0.002-0.006-0.004-0.01-0.007-0.016c-0.057-0.109-0.113-0.223-0.155-0.338c-4.548-0.271-8.755-1.409-10.486-3.416
	c-0.001-0.003-0.003-0.005-0.004-0.007c-0.385-0.446-0.65-0.938-0.766-1.471c-0.987-0.157-1.925-0.363-2.796-0.612
	c-0.005-0.001-0.009-0.002-0.015-0.003c-0.224-0.065-0.443-0.132-0.657-0.203c0,0,0,0-0.001,0c-0.259-0.084-0.509-0.175-0.753-0.269
	c-0.005-0.002-0.009-0.004-0.014-0.006c-1.158-0.45-2.124-1.003-2.814-1.657c-0.208-0.196-0.395-0.399-0.548-0.616
	c-0.002-0.003-0.004-0.007-0.006-0.01c-0.389-0.545-0.606-1.146-0.606-1.808c0-0.229,0.026-0.452,0.076-0.667
	c0.018-0.071,0.051-0.138,0.073-0.208c0.043-0.141,0.084-0.282,0.148-0.416c0.01-0.02,0.025-0.039,0.036-0.058
	c0.202,0.431,0.462,0.839,0.755,1.232c0.155,0.209,0.313,0.415,0.493,0.611c0.147,0.161,0.309,0.313,0.471,0.467
	c0.703,0.66,1.553,1.246,2.544,1.755c0.002,0.002,0.004,0.003,0.006,0.004c0.099,0.052,0.199,0.101,0.301,0.149
	c0.003,0.002,0.007,0.004,0.011,0.006c0.189,0.091,0.375,0.187,0.573,0.271c0.001,0.001,0.004,0.002,0.006,0.003
	c2.814,1.219,6.557,1.888,11.037,1.888c0.66,0,1.32-0.019,1.972-0.051c0.202,1.033,0.623,1.951,1.187,2.787v0.001
	c0.592,0.876,1.346,1.658,2.259,2.333c0.006,0.005,0.014,0.009,0.02,0.014c0.372,0.273,0.767,0.529,1.181,0.772
	c0.055,0.031,0.116,0.06,0.171,0.091c3.912,2.215,9.568,3.116,14.89,3.116c6.184,0,12.816-1.215,16.638-4.301
	c0.313-0.254,0.607-0.52,0.881-0.798c1.011-1.031,1.756-2.229,2.105-3.635l21.34-7.697l0.435-0.156l3.771-1.36l1.73-0.624
	l0.435-0.156l2.322-0.838c0.41-0.148,0.783-0.359,1.114-0.619c0.72-0.563,1.219-1.359,1.429-2.254
	c0.06,0.048,0.118,0.095,0.174,0.143c0.084,0.071,0.171,0.142,0.247,0.217c0.104,0.1,0.19,0.205,0.28,0.31
	c0.064,0.076,0.137,0.149,0.192,0.228c0.084,0.113,0.148,0.23,0.217,0.349c0.043,0.076,0.097,0.15,0.134,0.229
	c0.062,0.133,0.105,0.273,0.146,0.413c0.021,0.07,0.055,0.136,0.07,0.206c0.05,0.213,0.075,0.434,0.075,0.662
	C95.974,45.533,95.944,45.764,95.889,45.99z"/>
</svg>
